<svg xmlns="http://www.w3.org/2000/svg" viewBox="0 0 1600 1000" width="1600" height="1000" role="img">
<defs>
  <linearGradient id="grad-m" x1="0" y1="0" x2="1" y2="1">
    <stop offset="0%" stop-color="#1C1C22"/>
    <stop offset="100%" stop-color="#F5A524" stop-opacity="0.55"/>
  </linearGradient>
  <linearGradient id="grad-cta" x1="0" y1="0" x2="1" y2="0">
    <stop offset="0%" stop-color="#F5A524"/>
    <stop offset="100%" stop-color="#D946EF"/>
  </linearGradient>
</defs>
    <rect x="0" y="0" width="1600" height="1000" rx="0" fill="#0C0C0E"/>
    
    <rect x="0" y="0" width="1600" height="72" rx="0" fill="#16161A"/>
    <rect x="0" y="71" width="1600" height="1" rx="0" fill="#26262E"/>
    <text x="48" y="46" font-family="Inter, system-ui, sans-serif" font-size="24" font-weight="700" fill="#F4F4F5" text-anchor="start">SoundWave</text>
    <rect x="360" y="33" width="72" height="8" rx="4" fill="#F4F4F5" opacity="0.35"/><rect x="470" y="33" width="72" height="8" rx="4" fill="#F4F4F5" opacity="0.35"/><rect x="580" y="33" width="72" height="8" rx="4" fill="#F4F4F5" opacity="0.35"/><rect x="690" y="33" width="72" height="8" rx="4" fill="#F4F4F5" opacity="0.35"/>
    <rect x="1400" y="22" width="152" height="30" rx="15" fill="url(#grad-cta)"/>
  
    <rect x="360" y="100" width="520" height="44" rx="22" fill="#16161A"/>
    <circle cx="392" cy="122" r="7" fill="#8B8B96" opacity="0.7"/>
    <rect x="412" y="117" width="160" height="9" rx="4.5" fill="#F4F4F5" opacity="0.28"/>
    <rect x="48" y="180" width="212" height="620" rx="16" fill="#16161A"/>
    
        <rect x="76" y="220" width="90" height="10" rx="5" fill="#F4F4F5" opacity="0.55"/>
        
          <rect x="76" y="246" width="14" height="14" rx="4" fill="#26262E"/>
          <rect x="100" y="250" width="76" height="8" rx="4" fill="#F4F4F5" opacity="0.25"/>
          <rect x="76" y="274" width="14" height="14" rx="4" fill="#26262E"/>
          <rect x="100" y="278" width="76" height="8" rx="4" fill="#F4F4F5" opacity="0.25"/>
          <rect x="76" y="302" width="14" height="14" rx="4" fill="#26262E"/>
          <rect x="100" y="306" width="76" height="8" rx="4" fill="#F4F4F5" opacity="0.25"/>
        <rect x="76" y="360" width="90" height="10" rx="5" fill="#F4F4F5" opacity="0.55"/>
        
          <rect x="76" y="386" width="14" height="14" rx="4" fill="#26262E"/>
          <rect x="100" y="390" width="76" height="8" rx="4" fill="#F4F4F5" opacity="0.25"/>
          <rect x="76" y="414" width="14" height="14" rx="4" fill="#26262E"/>
          <rect x="100" y="418" width="76" height="8" rx="4" fill="#F4F4F5" opacity="0.25"/>
          <rect x="76" y="442" width="14" height="14" rx="4" fill="#26262E"/>
          <rect x="100" y="446" width="76" height="8" rx="4" fill="#F4F4F5" opacity="0.25"/>
        <rect x="76" y="500" width="90" height="10" rx="5" fill="#F4F4F5" opacity="0.55"/>
        
          <rect x="76" y="526" width="14" height="14" rx="4" fill="#26262E"/>
          <rect x="100" y="530" width="76" height="8" rx="4" fill="#F4F4F5" opacity="0.25"/>
          <rect x="76" y="554" width="14" height="14" rx="4" fill="#26262E"/>
          <rect x="100" y="558" width="76" height="8" rx="4" fill="#F4F4F5" opacity="0.25"/>
          <rect x="76" y="582" width="14" height="14" rx="4" fill="#26262E"/>
          <rect x="100" y="586" width="76" height="8" rx="4" fill="#F4F4F5" opacity="0.25"/>
        <rect x="76" y="640" width="90" height="10" rx="5" fill="#F4F4F5" opacity="0.55"/>
        
          <rect x="76" y="666" width="14" height="14" rx="4" fill="#26262E"/>
          <rect x="100" y="670" width="76" height="8" rx="4" fill="#F4F4F5" opacity="0.25"/>
          <rect x="76" y="694" width="14" height="14" rx="4" fill="#26262E"/>
          <rect x="100" y="698" width="76" height="8" rx="4" fill="#F4F4F5" opacity="0.25"/>
          <rect x="76" y="722" width="14" height="14" rx="4" fill="#26262E"/>
          <rect x="100" y="726" width="76" height="8" rx="4" fill="#F4F4F5" opacity="0.25"/>
    
      <rect x="300" y="200" width="396" height="320" rx="16" fill="#16161A"/>
      
  <rect x="301" y="201" width="394" height="190" rx="16" fill="url(#grad-m)"/>
  <circle cx="584.6800000000001" cy="258" r="53.2" fill="#F5A524" opacity="0.28"/>
  <path d="M301 337.79999999999995 L411.32 288.4 L505.88 326.4 L608.3199999999999 273.2 L695 311.2 L695 391 L301 391 Z" fill="#D946EF" opacity="0.22"/>
  <path d="M301 360.6 L434.96000000000004 315 L545.28 349.20000000000005 L695 326.4 L695 391 L301 391 Z" fill="#0C0C0E" opacity="0.5"/>

      <rect x="322" y="420" width="190" height="12" rx="6" fill="#F4F4F5" opacity="0.8"/>
      <rect x="322" y="446" width="130" height="9" rx="4.5" fill="#F4F4F5" opacity="0.3"/>
      <text x="322" y="492" font-family="Inter, system-ui, sans-serif" font-size="20" font-weight="700" fill="#F5A524" text-anchor="start">249 €</text>
      <rect x="600" y="472" width="72" height="30" rx="15" fill="#F5A524"/>
      <rect x="728" y="200" width="396" height="320" rx="16" fill="#16161A"/>
      
  <rect x="729" y="201" width="394" height="190" rx="16" fill="url(#grad-m)"/>
  <circle cx="1012.6800000000001" cy="258" r="53.2" fill="#F5A524" opacity="0.28"/>
  <path d="M729 337.79999999999995 L839.32 288.4 L933.88 326.4 L1036.32 273.2 L1123 311.2 L1123 391 L729 391 Z" fill="#D946EF" opacity="0.22"/>
  <path d="M729 360.6 L862.96 315 L973.28 349.20000000000005 L1123 326.4 L1123 391 L729 391 Z" fill="#0C0C0E" opacity="0.5"/>

      <rect x="750" y="420" width="190" height="12" rx="6" fill="#F4F4F5" opacity="0.8"/>
      <rect x="750" y="446" width="130" height="9" rx="4.5" fill="#F4F4F5" opacity="0.3"/>
      <text x="750" y="492" font-family="Inter, system-ui, sans-serif" font-size="20" font-weight="700" fill="#F5A524" text-anchor="start">389 €</text>
      <rect x="1028" y="472" width="72" height="30" rx="15" fill="#F5A524"/>
      <rect x="1156" y="200" width="396" height="320" rx="16" fill="#16161A"/>
      
  <rect x="1157" y="201" width="394" height="190" rx="16" fill="url(#grad-m)"/>
  <circle cx="1440.68" cy="258" r="53.2" fill="#F5A524" opacity="0.28"/>
  <path d="M1157 337.79999999999995 L1267.32 288.4 L1361.88 326.4 L1464.32 273.2 L1551 311.2 L1551 391 L1157 391 Z" fill="#D946EF" opacity="0.22"/>
  <path d="M1157 360.6 L1290.96 315 L1401.28 349.20000000000005 L1551 326.4 L1551 391 L1157 391 Z" fill="#0C0C0E" opacity="0.5"/>

      <rect x="1178" y="420" width="190" height="12" rx="6" fill="#F4F4F5" opacity="0.8"/>
      <rect x="1178" y="446" width="130" height="9" rx="4.5" fill="#F4F4F5" opacity="0.3"/>
      <text x="1178" y="492" font-family="Inter, system-ui, sans-serif" font-size="20" font-weight="700" fill="#F5A524" text-anchor="start">1 290 €</text>
      <rect x="1456" y="472" width="72" height="30" rx="15" fill="#F5A524"/>
      <rect x="300" y="560" width="396" height="320" rx="16" fill="#16161A"/>
      
  <rect x="301" y="561" width="394" height="190" rx="16" fill="url(#grad-m)"/>
  <circle cx="584.6800000000001" cy="618" r="53.2" fill="#F5A524" opacity="0.28"/>
  <path d="M301 697.8 L411.32 648.4 L505.88 686.4 L608.3199999999999 633.2 L695 671.2 L695 751 L301 751 Z" fill="#D946EF" opacity="0.22"/>
  <path d="M301 720.6 L434.96000000000004 675 L545.28 709.2 L695 686.4 L695 751 L301 751 Z" fill="#0C0C0E" opacity="0.5"/>

      <rect x="322" y="780" width="190" height="12" rx="6" fill="#F4F4F5" opacity="0.8"/>
      <rect x="322" y="806" width="130" height="9" rx="4.5" fill="#F4F4F5" opacity="0.3"/>
      <text x="322" y="852" font-family="Inter, system-ui, sans-serif" font-size="20" font-weight="700" fill="#F5A524" text-anchor="start">249 €</text>
      <rect x="600" y="832" width="72" height="30" rx="15" fill="#F5A524"/>
      <rect x="728" y="560" width="396" height="320" rx="16" fill="#16161A"/>
      
  <rect x="729" y="561" width="394" height="190" rx="16" fill="url(#grad-m)"/>
  <circle cx="1012.6800000000001" cy="618" r="53.2" fill="#F5A524" opacity="0.28"/>
  <path d="M729 697.8 L839.32 648.4 L933.88 686.4 L1036.32 633.2 L1123 671.2 L1123 751 L729 751 Z" fill="#D946EF" opacity="0.22"/>
  <path d="M729 720.6 L862.96 675 L973.28 709.2 L1123 686.4 L1123 751 L729 751 Z" fill="#0C0C0E" opacity="0.5"/>

      <rect x="750" y="780" width="190" height="12" rx="6" fill="#F4F4F5" opacity="0.8"/>
      <rect x="750" y="806" width="130" height="9" rx="4.5" fill="#F4F4F5" opacity="0.3"/>
      <text x="750" y="852" font-family="Inter, system-ui, sans-serif" font-size="20" font-weight="700" fill="#F5A524" text-anchor="start">389 €</text>
      <rect x="1028" y="832" width="72" height="30" rx="15" fill="#F5A524"/>
      <rect x="1156" y="560" width="396" height="320" rx="16" fill="#16161A"/>
      
  <rect x="1157" y="561" width="394" height="190" rx="16" fill="url(#grad-m)"/>
  <circle cx="1440.68" cy="618" r="53.2" fill="#F5A524" opacity="0.28"/>
  <path d="M1157 697.8 L1267.32 648.4 L1361.88 686.4 L1464.32 633.2 L1551 671.2 L1551 751 L1157 751 Z" fill="#D946EF" opacity="0.22"/>
  <path d="M1157 720.6 L1290.96 675 L1401.28 709.2 L1551 686.4 L1551 751 L1157 751 Z" fill="#0C0C0E" opacity="0.5"/>

      <rect x="1178" y="780" width="190" height="12" rx="6" fill="#F4F4F5" opacity="0.8"/>
      <rect x="1178" y="806" width="130" height="9" rx="4.5" fill="#F4F4F5" opacity="0.3"/>
      <text x="1178" y="852" font-family="Inter, system-ui, sans-serif" font-size="20" font-weight="700" fill="#F5A524" text-anchor="start">1 290 €</text>
      <rect x="1456" y="832" width="72" height="30" rx="15" fill="#F5A524"/>
  </svg>
